<?xml version="1.0" encoding="utf-8"?>
<!-- Generator: Adobe Illustrator 18.0.0, SVG Export Plug-In . SVG Version: 6.00 Build 0)  -->
<!DOCTYPE svg PUBLIC "-//W3C//DTD SVG 1.1//EN" "http://www.w3.org/Graphics/SVG/1.1/DTD/svg11.dtd">
<svg version="1.1" id="Layer_1" xmlns="http://www.w3.org/2000/svg" xmlns:xlink="http://www.w3.org/1999/xlink" x="0px" y="0px"
	 viewBox="0 0 100 100" enable-background="new 0 0 100 100" xml:space="preserve">
<g>
	<path d="M38.4,41.4h7.9l0.5-3.7c1-7.9,4.5-17.1,15.3-17.1c2.4,0.1,4.3,0.6,5.4,1.2l-1.3,5.1c-1.2-0.5-2.6-0.8-4.2-0.8
		c-5.4,0-7.8,5.2-8.5,11.1l-0.5,4.2h9.6v5H52.4l-1.9,16.4C49.2,73.2,46,80.2,36.6,80.2c-2.6,0-4.9-0.6-6.2-1.3l1.3-5
		c1.4,0.6,2.8,0.9,4.5,0.9c5,0,6.8-4.4,7.8-12.6l1.8-15.8h-7.4V41.4z"/>
</g>
</svg>
