<?xml version="1.0" encoding="utf-8"?>
<!-- Generator: Adobe Illustrator 18.0.0, SVG Export Plug-In . SVG Version: 6.00 Build 0)  -->
<!DOCTYPE svg PUBLIC "-//W3C//DTD SVG 1.1//EN" "http://www.w3.org/Graphics/SVG/1.1/DTD/svg11.dtd">
<svg version="1.1" id="Layer_1" xmlns="http://www.w3.org/2000/svg" xmlns:xlink="http://www.w3.org/1999/xlink" x="0px" y="0px"
	 viewBox="0 0 100 100" enable-background="new 0 0 100 100" xml:space="preserve">
<g>
	<path d="M80,78H20c-7.2,0-13-5.8-13-13V35c0-7.2,5.8-13,13-13h60c7.2,0,13,5.8,13,13v30C93,72.2,87.2,78,80,78z M20,24
		c-6.1,0-11,4.9-11,11v30c0,6.1,4.9,11,11,11h60c6.1,0,11-4.9,11-11V35c0-6.1-4.9-11-11-11H20z"/>
</g>
<path d="M23.3,37.4h3.4v25.1h-3.4V37.4z"/>
<path d="M35.4,54.4c0.1,1.4,0.4,2.6,1,3.5c1.1,1.7,3,2.5,5.7,2.5c1.2,0,2.3-0.2,3.4-0.5c2-0.7,2.9-2,2.9-3.8c0-1.4-0.4-2.3-1.2-2.9
	c-0.8-0.6-2.2-1.1-3.9-1.5L40,50.9c-2.2-0.5-3.7-1.1-4.6-1.7c-1.5-1-2.3-2.6-2.3-4.7c0-2.3,0.8-4.1,2.3-5.6c1.5-1.4,3.7-2.2,6.5-2.2
	c2.6,0,4.7,0.6,6.5,1.9C50.1,40,51,42,51,44.8h-3.2c-0.2-1.3-0.5-2.4-1-3.1c-1-1.3-2.7-2-5.1-2c-1.9,0-3.3,0.4-4.1,1.3
	c-0.8,0.8-1.3,1.8-1.3,2.9c0,1.2,0.5,2.1,1.5,2.7c0.7,0.4,2.1,0.8,4.4,1.4l3.4,0.8c1.6,0.4,2.9,0.9,3.8,1.6c1.5,1.2,2.3,2.9,2.3,5.1
	c0,2.8-1,4.8-3,6s-4.3,1.8-6.9,1.8c-3,0-5.4-0.8-7.1-2.4c-1.7-1.6-2.6-3.7-2.5-6.4H35.4z"/>
<path d="M77.2,41c1.7,2.2,2.5,5.1,2.5,8.5c0,3.7-1,6.9-2.9,9.3c-2.2,2.9-5.4,4.4-9.6,4.4c-3.9,0-6.9-1.3-9.1-3.8c-2-2.5-3-5.6-3-9.3
	c0-3.4,0.8-6.3,2.5-8.7c2.2-3.1,5.4-4.6,9.6-4.6C71.8,36.7,75.1,38.2,77.2,41z M74.2,57c1.3-2.1,2-4.6,2-7.4c0-3-0.8-5.3-2.3-7.1
	c-1.5-1.8-3.7-2.7-6.3-2.7c-2.6,0-4.7,0.9-6.4,2.7c-1.6,1.8-2.5,4.4-2.5,7.9c0,2.8,0.7,5.1,2.1,7c1.4,1.9,3.7,2.9,6.8,2.9
	C70.7,60.2,72.9,59.2,74.2,57z"/>
</svg>
