<?xml version="1.0" encoding="utf-8"?>
<!-- Generator: Adobe Illustrator 18.0.0, SVG Export Plug-In . SVG Version: 6.00 Build 0)  -->
<!DOCTYPE svg PUBLIC "-//W3C//DTD SVG 1.1//EN" "http://www.w3.org/Graphics/SVG/1.1/DTD/svg11.dtd">
<svg version="1.1" id="Layer_1" xmlns="http://www.w3.org/2000/svg" xmlns:xlink="http://www.w3.org/1999/xlink" x="0px" y="0px"
	 viewBox="0 0 100 100" enable-background="new 0 0 100 100" xml:space="preserve">
<path fill="none" d="M45,30V18.9C30,21.3,18.5,34.3,18.5,50c0,17.4,14.1,31.5,31.5,31.5S81.5,67.4,81.5,50
	C81.5,34.3,70,21.3,55,18.9V30H45z"/>
<path fill="none" d="M55,18.9c-1.6-0.3-3.3-0.4-5-0.4s-3.4,0.1-5,0.4C30,21.3,18.5,34.3,18.5,50c0,17.4,14.1,31.5,31.5,31.5
	S81.5,67.4,81.5,50C81.5,34.3,70,21.3,55,18.9z"/>
<path fill="none" d="M55,18.9c-1.6-0.3-3.3-0.4-5-0.4s-3.4,0.1-5,0.4C30,21.3,18.5,34.3,18.5,50c0,17.4,14.1,31.5,31.5,31.5
	S81.5,67.4,81.5,50C81.5,34.3,70,21.3,55,18.9z"/>
<path d="M55,15.4v-1V13h5V9h-5H45h-5v4h5v1.4v1c1.6-0.2,3.3-0.4,5-0.4S53.4,15.1,55,15.4z"/>
<path d="M71.6,22.5c-1.3-1-2.7-2-4.1-2.8s-3-1.6-4.5-2.2c-15.9-6.4-34.5-0.3-43.3,15C10,49.2,15.8,70.6,32.5,80.3
	s38.1,3.9,47.8-12.8C89.1,52.2,85.1,33.1,71.6,22.5z M34.2,77.3c-15.1-8.7-20.2-28-11.5-43C30.6,20.7,47,15.1,61.2,20.6
	c1.5,0.6,3.1,1.3,4.5,2.2s2.8,1.8,4.1,2.8c11.8,9.6,15.2,26.6,7.4,40.2C68.6,80.8,49.3,86,34.2,77.3z"/>
<rect x="54" y="25.8" transform="matrix(0.866 0.5 -0.5 0.866 28.0385 -21.9615)" width="2" height="31"/>
<circle cx="50" cy="50" r="2.5"/>
</svg>
