<?xml version="1.0" encoding="utf-8"?>
<!-- Generator: Adobe Illustrator 18.0.0, SVG Export Plug-In . SVG Version: 6.00 Build 0)  -->
<!DOCTYPE svg PUBLIC "-//W3C//DTD SVG 1.1//EN" "http://www.w3.org/Graphics/SVG/1.1/DTD/svg11.dtd">
<svg version="1.1" id="Layer_1" xmlns="http://www.w3.org/2000/svg" xmlns:xlink="http://www.w3.org/1999/xlink" x="0px" y="0px"
	 viewBox="0 0 100 100" enable-background="new 0 0 100 100" xml:space="preserve">
<polygon points="12.7,35.7 12.7,35.7 12.7,35.7 "/>
<path d="M58.5,28.9c-6.2-0.2-12.4-0.2-18.6,0c-8.3,0.3-16.6,0.8-24.9,1.7c3.4-6.2,8.5-11.5,15-15.3c5-2.9,10.3-4.5,15.7-5.1
	C50.2,16.3,54.5,22.5,58.5,28.9z"/>
<path d="M36,32.1c-3.2,5.3-6.3,10.7-9.3,16.2c-3.9,7.3-7.6,14.8-10.9,22.4C12.1,64.6,10,57.6,10,50c0-5.7,1.2-11.2,3.4-16.1
	C20.9,33,28.4,32.4,36,32.1z"/>
<path d="M27.4,53.2c3,5.5,6.1,10.8,9.4,16.1c4.4,7.1,9,14,14,20.7c-7,0.1-14.2-1.6-20.8-5.4c-5-2.9-9.1-6.7-12.3-11
	C20.7,66.7,24,59.9,27.4,53.2z"/>
<path d="M41.5,71.1c6.2,0.2,12.4,0.2,18.6,0c8.3-0.3,16.6-0.8,24.9-1.7c-3.4,6.2-8.5,11.5-15,15.3c-5,2.9-10.3,4.5-15.7,5.1
	C49.8,83.7,45.5,77.5,41.5,71.1z"/>
<path d="M64,67.9c3.2-5.3,6.3-10.7,9.3-16.2c3.9-7.3,7.6-14.8,10.9-22.4c3.6,6,5.7,13.1,5.7,20.6c0,5.7-1.2,11.2-3.4,16.1
	C79.1,67,71.6,67.6,64,67.9z"/>
<path d="M72.6,46.8c-3-5.5-6.1-10.8-9.4-16.1c-4.4-7.1-9-14-14-20.7c7-0.1,14.2,1.6,20.8,5.4c5,2.9,9.1,6.7,12.3,11
	C79.3,33.3,76,40.1,72.6,46.8z"/>
</svg>
